<?xml version="1.0" encoding="UTF-8" standalone="no"?>
<svg
   xmlns:dc="http://purl.org/dc/elements/1.1/"
   xmlns:cc="http://creativecommons.org/ns#"
   xmlns:rdf="http://www.w3.org/1999/02/22-rdf-syntax-ns#"
   xmlns:svg="http://www.w3.org/2000/svg"
   xmlns="http://www.w3.org/2000/svg"
   xmlns:sodipodi="http://sodipodi.sourceforge.net/DTD/sodipodi-0.dtd"
   xmlns:inkscape="http://www.inkscape.org/namespaces/inkscape"
   xml:space="preserve"
   height="144px"
   width="144px"
   id="svg4400"
   version="1.1"
   inkscape:version="0.91 r13725"
   sodipodi:docname="rust-sci.svg"><metadata
     id="metadata4410"><rdf:RDF><cc:Work
         rdf:about=""><dc:format>image/svg+xml</dc:format><dc:type
           rdf:resource="http://purl.org/dc/dcmitype/StillImage" /><dc:title></dc:title></cc:Work></rdf:RDF></metadata><defs
     id="defs4408" /><sodipodi:namedview
     pagecolor="#ffffff"
     bordercolor="#666666"
     borderopacity="1"
     objecttolerance="10"
     gridtolerance="10"
     guidetolerance="10"
     inkscape:pageopacity="0"
     inkscape:pageshadow="2"
     inkscape:window-width="1366"
     inkscape:window-height="712"
     id="namedview4406"
     showgrid="false"
     inkscape:zoom="4"
     inkscape:cx="55.788931"
     inkscape:cy="78.756389"
     inkscape:window-x="0"
     inkscape:window-y="0"
     inkscape:window-maximized="1"
     inkscape:current-layer="svg4400" /><path
     d="m 72.004885,0.9062522 c -0.711849,0 -1.373867,0.3681278 -1.746094,0.9726562 l -3.695312,5.9707032 c -0.581435,0.047546 -1.162876,0.1041197 -1.740235,0.1679687 L 60.038088,2.8847678 C 59.553107,2.3658244 58.83265,2.1342789 58.135744,2.2714866 c -0.699621,0.139924 -1.274833,0.6284975 -1.523437,1.296875 l -2.453125,6.5585944 c -0.567849,0.163012 -1.130351,0.335115 -1.691407,0.511718 L 46.784182,6.5488303 C 46.206824,6.1317737 45.453409,6.0439465 44.7959,6.3183616 44.139749,6.5900597 43.66978,7.1837867 43.555666,7.8847678 L 42.42676,14.800784 c -0.52166,0.270339 -1.037867,0.55006 -1.552735,0.833984 l -6.376953,-2.908203 c -0.648,-0.296151 -1.402602,-0.23457 -1.992187,0.162109 -0.592302,0.393963 -0.93928,1.068807 -0.91211,1.779297 l 0.246094,7.017578 c -0.453736,0.362717 -0.903429,0.734432 -1.347656,1.109375 l -6.835938,-1.611328 c -0.694189,-0.16166 -1.421187,0.04423 -1.923828,0.546875 -0.505359,0.504 -0.711847,1.231592 -0.548828,1.925781 l 1.611328,6.835938 c -0.373585,0.442868 -0.744705,0.890014 -1.107422,1.34375 l -7.017578,-0.244141 c -0.707774,-0.02038 -1.383976,0.319808 -1.779297,0.91211 -0.39668,0.589585 -0.456901,1.344782 -0.162109,1.99414 l 2.908203,6.378907 C 15.353179,41.389107 15.0721,41.905313 14.80176,42.42969 l -6.9140625,1.125 c -0.7023396,0.114113 -1.2953026,0.582725 -1.5683593,1.240234 -0.271698,0.658868 -0.1819177,1.410922 0.2324219,1.988282 l 4.0898429,5.68164 c -0.177958,0.561057 -0.350653,1.123556 -0.513671,1.691406 l -6.5585938,2.453125 c -0.6656602,0.248604 -1.1563559,0.823815 -1.2949219,1.523438 -0.1385661,0.698264 0.092979,1.417957 0.6132812,1.904297 l 5.1308594,4.783203 c -0.063849,0.577358 -0.119063,1.160159 -0.1679687,1.740234 l -5.9707031,3.695313 c -0.6045286,0.373585 -0.97265635,1.032886 -0.97265635,1.746094 0,0.713205 0.36812775,1.373867 0.97265635,1.746093 l 5.9707031,3.695313 c 0.048906,0.581434 0.1041196,1.160923 0.1679687,1.738281 l -5.1308594,4.785156 c -0.5203013,0.484982 -0.7518473,1.205438 -0.6132812,1.902344 0.138566,0.699623 0.6292617,1.275428 1.2949219,1.525391 l 6.5585938,2.451172 c 0.163018,0.567847 0.335712,1.132302 0.513671,1.693359 l -4.0898429,5.681641 c -0.4156982,0.578716 -0.5054784,1.330177 -0.2324219,1.986328 0.2730567,0.658874 0.8679728,1.129426 1.5703125,1.242186 l 6.9121093,1.125 c 0.27034,0.52437 0.548702,1.03983 0.833984,1.55469 l -2.908203,6.375 c -0.296151,0.648 -0.234571,1.40184 0.162109,1.99414 0.396679,0.59366 1.071523,0.94064 1.779297,0.91211 l 7.015625,-0.24609 c 0.365434,0.45645 0.734431,0.90342 1.109375,1.34765 l -1.611328,6.83789 c -0.163019,0.69283 0.04347,1.41593 0.548828,1.91993 0.501283,0.50672 1.229639,0.70989 1.923828,0.54687 l 6.835938,-1.60937 c 0.444227,0.37766 0.89392,0.7441 1.347656,1.10546 l -0.246094,7.01954 c -0.02717,0.71049 0.319808,1.38457 0.91211,1.78125 0.589585,0.39532 1.344187,0.45435 1.992187,0.1582 l 6.376953,-2.90625 c 0.513509,0.28528 1.029716,0.56364 1.552735,0.83398 l 1.128906,6.91211 c 0.114114,0.70369 0.582724,1.29802 1.240234,1.56836 0.656151,0.27304 1.410924,0.18387 1.988282,-0.23047 l 5.68164,-4.09179 c 0.561056,0.17796 1.123558,0.35065 1.691407,0.51367 l 2.453124,6.55664 c 0.248605,0.66566 0.823816,1.15907 1.523438,1.29492 0.698265,0.14129 1.417363,-0.0916 1.902344,-0.61328 l 4.785156,-5.13281 c 0.577359,0.0666 1.1588,0.12219 1.740234,0.17383 l 3.695313,5.9707 c 0.372227,0.60181 1.034245,0.97265 1.746094,0.97265 0.711849,0 1.374456,-0.36948 1.748047,-0.97265 l 3.693359,-5.9707 c 0.581434,-0.0516 1.162875,-0.10726 1.740234,-0.17383 l 4.783203,5.13281 c 0.484981,0.52166 1.205438,0.75457 1.902344,0.61328 0.699621,-0.1372 1.276787,-0.62926 1.525391,-1.29492 l 2.451172,-6.55664 c 0.567849,-0.16302 1.132303,-0.33571 1.693359,-0.51367 l 5.681641,4.09179 c 0.577358,0.41434 1.330177,0.50351 1.986328,0.23047 0.65751,-0.27034 1.12807,-0.86602 1.24219,-1.56836 l 1.12695,-6.91211 c 0.52166,-0.27034 1.03787,-0.55277 1.55273,-0.83398 l 6.37696,2.90625 c 0.64799,0.29615 1.40124,0.23712 1.99218,-0.1582 0.59231,-0.39668 0.93792,-1.0694 0.91211,-1.78125 l -0.24414,-7.01954 c 0.45374,-0.36272 0.90284,-0.7278 1.34571,-1.10546 l 6.83593,1.60937 c 0.69419,0.16302 1.4206,-0.0401 1.92188,-0.54687 0.50536,-0.504 0.71185,-1.2271 0.54883,-1.91993 l -1.61133,-6.83789 c 0.37494,-0.44423 0.74606,-0.8912 1.10742,-1.34765 l 7.01758,0.24609 c 0.70777,0.0285 1.38397,-0.31845 1.7793,-0.91211 0.39666,-0.5923 0.45766,-1.34614 0.16015,-1.99414 l -2.90625,-6.375 c 0.28393,-0.51486 0.56305,-1.03032 0.83203,-1.55469 l 6.91407,-1.125 c 0.70368,-0.11276 1.29666,-0.583312 1.56835,-1.242186 0.27171,-0.656151 0.18659,-1.407612 -0.23046,-1.986328 l -4.0918,-5.681641 c 0.1766,-0.561057 0.34929,-1.125516 0.51367,-1.693359 l 6.55859,-2.451172 c 0.66703,-0.249963 1.15908,-0.825768 1.29493,-1.525391 0.14128,-0.698264 -0.0936,-1.417362 -0.61524,-1.902344 l -5.1289,-4.785156 c 0.0625,-0.577358 0.11965,-1.158206 0.16992,-1.738281 l 5.96875,-3.695313 c 0.60453,-0.372226 0.97265,-1.034244 0.97265,-1.746093 0,-0.71185 -0.36617,-1.372509 -0.9707,-1.746094 l -5.96875,-3.695313 c -0.0503,-0.581434 -0.10743,-1.162876 -0.16992,-1.740234 l 5.12891,-4.783203 c 0.52165,-0.48634 0.75456,-1.207391 0.61328,-1.904297 -0.13721,-0.699623 -0.62791,-1.274834 -1.29493,-1.523438 l -6.55664,-2.453125 c -0.16437,-0.56785 -0.33706,-1.130349 -0.51367,-1.691406 l 4.08985,-5.68164 c 0.41705,-0.57736 0.50412,-1.329414 0.23242,-1.988282 -0.2717,-0.656151 -0.86602,-1.124762 -1.56836,-1.240234 l -6.91406,-1.125 c -0.26899,-0.524377 -0.54947,-1.040583 -0.83204,-1.552734 l 2.90626,-6.378907 c 0.2975,-0.649358 0.23652,-1.404555 -0.16016,-1.99414 -0.39532,-0.592302 -1.06473,-0.939279 -1.7793,-0.91211 l -7.01953,0.244141 c -0.36272,-0.453736 -0.73112,-0.902241 -1.10742,-1.34375 l 1.61133,-6.835938 c 0.16302,-0.694189 -0.0415,-1.421781 -0.54688,-1.925781 -0.50128,-0.502641 -1.22964,-0.709894 -1.92383,-0.546875 l -6.83398,1.611328 c -0.44287,-0.374943 -0.89256,-0.746658 -1.34766,-1.109375 l 0.2461,-7.017578 c 0.0272,-0.71049 -0.31981,-1.385334 -0.91211,-1.779297 -0.59366,-0.396679 -1.3442,-0.456901 -1.99219,-0.162109 l -6.37695,2.908203 c -0.51487,-0.282566 -1.03108,-0.563645 -1.55274,-0.833984 L 100.45215,7.8847678 C 100.33804,7.1837867 99.867473,6.5900597 99.209963,6.3183616 98.553812,6.0453049 97.800994,6.1331322 97.223635,6.5488303 l -5.685547,4.0898437 c -0.559698,-0.177962 -1.121604,-0.3487 -1.689453,-0.511718 L 87.39551,3.5683616 C 87.146906,2.8999842 86.571694,2.4100524 85.872072,2.2714866 85.173807,2.134279 84.454706,2.3658244 83.969729,2.8847678 L 79.184572,8.0175803 C 78.607213,7.9537313 78.026367,7.8971583 77.446291,7.8496116 L 73.750979,1.8789084 C 73.377391,1.27438 72.716734,0.9062522 72.004885,0.9062522 Z"
     id="path4404"
     inkscape:connector-curvature="0"
     style="fill:#000000" /><circle
     style="color:#000000;display:inline;overflow:visible;visibility:visible;opacity:1;fill:#ffffff;fill-opacity:1;fill-rule:nonzero;stroke:none;stroke-width:4;stroke-linecap:round;stroke-linejoin:round;stroke-miterlimit:4;stroke-dasharray:none;stroke-opacity:1;marker:none;enable-background:accumulate"
     id="path4225"
     cx="72"
     cy="72"
     r="59.750523" /><ellipse
     style="color:#000000;display:inline;overflow:visible;visibility:visible;opacity:1;fill:none;fill-opacity:1;fill-rule:nonzero;stroke:#000000;stroke-width:4;stroke-linecap:round;stroke-linejoin:round;stroke-miterlimit:4;stroke-dasharray:none;stroke-opacity:1;marker:none;enable-background:accumulate"
     id="path4160"
     cx="101.81883"
     cy="0.96236038"
     rx="60.75"
     ry="18.75"
     transform="matrix(0.71375827,0.70039213,-0.70039213,0.71375827,0,0)" /><ellipse
     transform="matrix(0.96343651,-0.26793673,0.26793673,0.96343651,0,0)"
     ry="18.75"
     rx="60.75"
     cy="88.658875"
     cx="50.075989"
     id="ellipse4162"
     style="color:#000000;display:inline;overflow:visible;visibility:visible;opacity:1;fill:none;fill-opacity:1;fill-rule:nonzero;stroke:#000000;stroke-width:4;stroke-linecap:round;stroke-linejoin:round;stroke-miterlimit:4;stroke-dasharray:none;stroke-opacity:1;marker:none;enable-background:accumulate" /><path
     d="m 57.547202,59.651596 c -1.433176,1.587825 -2.583173,3.400993 -3.426681,5.366616 -0.0655,0.174478 -0.13074,0.349227 -0.179814,0.516048 1.608366,-0.0053 3.223967,0.0044 4.82864,0.0044 l -0.01017,12.427569 -5.453599,0.0041 c 0.64241,2.236072 1.690679,4.334748 3.075097,6.204533 l 15.843285,0 c 0.143628,-0.0084 0.239021,-0.049 0.239021,-0.192238 l 0,-5.623911 c 0,-0.163706 -0.120448,-0.196624 -0.300419,-0.196624 l -4.649558,0 0,-3.564831 5.028918,0 c 0.459093,0 2.454587,0.131161 3.092639,2.681845 0.199806,0.784475 0.638575,3.336232 0.938536,4.153244 0.295615,0.905946 1.489643,2.702531 2.770292,2.742515 2.93702,-5.6e-5 5.801952,-3e-6 8.374771,0 2.205576,-2.963579 3.470301,-6.435305 3.714367,-10.09804 l -2.123402,0 c -0.186278,0.008 -0.263869,0.134963 -0.263869,0.32454 l 0,0.916609 c 0,2.157686 -1.216619,2.626693 -2.28275,2.74617 -1.015293,0.114395 -2.14103,-0.42471 -2.279826,-1.045987 -0.598904,-3.368714 -1.596979,-4.088473 -3.173042,-5.331531 1.955847,-1.242041 3.990974,-3.074131 3.990974,-5.526694 0,-2.648298 -1.815704,-4.316875 -3.053169,-5.134905 -1.736215,-1.144427 -3.658056,-1.373451 -4.176634,-1.373451 z m 9.966469,6.017889 6.566101,0 c 0.339108,0 2.394583,0.392053 2.394583,1.928971 0,1.276107 -1.576914,1.733808 -2.873353,1.733808 l -6.087331,0 z"
     id="path4402"
     inkscape:connector-curvature="0"
     style="opacity:1;fill:#000000"
     sodipodi:nodetypes="ccccccccsssccsccccccsscccscsccssscc" /><ellipse
     style="color:#000000;display:inline;overflow:visible;visibility:visible;opacity:1;fill:none;fill-opacity:1;fill-rule:nonzero;stroke:#000000;stroke-width:4;stroke-linecap:round;stroke-linejoin:round;stroke-miterlimit:4;stroke-dasharray:none;stroke-opacity:1;marker:none;enable-background:accumulate"
     id="ellipse4164"
     cx="-51.742844"
     cy="87.696518"
     rx="60.75"
     ry="18.75"
     transform="matrix(0.24967824,-0.96832886,0.96832886,0.24967824,0,0)" /></svg>